<svg width="58" height="44" viewBox="0 0 58 44" fill="none" xmlns="http://www.w3.org/2000/svg" xmlns:xlink="http://www.w3.org/1999/xlink">
<path d="M40.906,3.502C44.094,3.509 47.149,4.433 49.403,6.074C51.658,7.714 52.928,9.937 52.938,12.257L52.938,29.767C52.928,32.087 51.658,34.31 49.403,35.95C47.149,37.591 44.094,38.516 40.906,38.523L16.844,38.523C13.656,38.516 10.601,37.591 8.347,35.95C6.092,34.31 4.822,32.087 4.812,29.767L4.812,12.257C4.822,9.937 6.092,7.714 8.347,6.074C10.601,4.433 13.656,3.509 16.844,3.502L40.906,3.502ZM40.906,0L16.844,0C7.58,0 0,5.516 0,12.257L0,29.767C0,36.509 7.58,42.024 16.844,42.024L40.906,42.024C50.17,42.024 57.75,36.509 57.75,29.767L57.75,12.257C57.75,5.516 50.17,0 40.906,0Z" fill="#000000"/>
<path d="M44.515,12.258C43.801,12.258 43.104,12.104 42.51,11.815C41.916,11.527 41.454,11.116 41.18,10.637C40.907,10.157 40.836,9.628 40.975,9.119C41.115,8.609 41.458,8.141 41.963,7.774C42.468,7.407 43.111,7.157 43.811,7.055C44.511,6.954 45.237,7.006 45.896,7.205C46.556,7.404 47.12,7.74 47.516,8.172C47.913,8.604 48.124,9.112 48.124,9.631C48.126,9.977 48.033,10.318 47.852,10.637C47.671,10.956 47.405,11.246 47.07,11.49C46.734,11.734 46.336,11.928 45.898,12.06C45.459,12.191 44.99,12.259 44.515,12.258ZM28.875,14.008C30.779,14.008 32.64,14.419 34.223,15.189C35.805,15.958 37.039,17.052 37.768,18.332C38.496,19.612 38.687,21.02 38.316,22.379C37.944,23.738 37.027,24.986 35.681,25.965C34.335,26.945 32.62,27.612 30.753,27.882C28.886,28.153 26.95,28.014 25.192,27.484C23.433,26.954 21.929,26.056 20.872,24.904C19.814,23.752 19.25,22.398 19.25,21.013C19.252,19.156 20.267,17.375 22.072,16.062C23.876,14.749 26.323,14.01 28.875,14.008ZM28.875,10.507C26.02,10.507 23.228,11.123 20.854,12.277C18.48,13.432 16.629,15.072 15.536,16.992C14.444,18.912 14.158,21.024 14.715,23.062C15.272,25.1 16.647,26.972 18.666,28.441C20.685,29.911 23.258,30.911 26.058,31.317C28.859,31.722 31.762,31.514 34.4,30.719C37.038,29.924 39.293,28.577 40.879,26.85C42.466,25.122 43.313,23.091 43.313,21.013C43.313,18.226 41.791,15.554 39.084,13.584C36.376,11.613 32.704,10.507 28.875,10.507Z" fill="#000000"/>
</svg>
