<svg width="130" height="130" viewBox="0 0 130 130" fill="none" xmlns="http://www.w3.org/2000/svg" xmlns:xlink="http://www.w3.org/1999/xlink">
<path d="M64.188,0C28.795,0 0,29.159 0,65C0,100.841 28.795,130 64.188,130C99.58,130 128.375,100.841 128.375,65C128.375,29.159 99.58,0 64.188,0ZM64.805,30C69.199,30 73.495,31.32 77.149,33.792C80.803,36.264 83.65,39.778 85.332,43.89C87.014,48.001 87.454,52.525 86.597,56.89C85.739,61.254 83.623,65.263 80.516,68.41C77.408,71.557 73.449,73.7 69.139,74.568C64.829,75.436 60.362,74.99 56.302,73.287C52.242,71.584 48.772,68.7 46.33,65C43.889,61.3 42.586,56.95 42.586,52.5C42.586,46.533 44.927,40.81 49.094,36.59C53.26,32.371 58.912,30 64.805,30ZM64.188,120C56.696,120.003 49.286,118.433 42.424,115.388C35.563,112.344 29.399,107.892 24.323,102.312C27.051,88.006 51.554,85 64.188,85C76.821,85 101.324,88.006 104.052,102.309C98.976,107.89 92.813,112.343 85.951,115.388C79.09,118.433 71.679,120.003 64.188,120Z" fill="#4B4B4B"/>
</svg>
