<svg width="38" height="38" viewBox="0 0 38 38" fill="none" xmlns="http://www.w3.org/2000/svg" xmlns:xlink="http://www.w3.org/1999/xlink">
<path d="M19,3.423C24.073,3.423 24.674,3.443 26.678,3.534C28.53,3.619 29.536,3.928 30.206,4.188C31.092,4.533 31.725,4.945 32.39,5.61C33.055,6.275 33.467,6.908 33.812,7.794C34.072,8.464 34.381,9.47 34.466,11.322C34.557,13.326 34.577,13.927 34.577,19C34.577,24.073 34.557,24.674 34.466,26.678C34.381,28.53 34.072,29.536 33.812,30.206C33.467,31.093 33.055,31.726 32.39,32.39C31.725,33.055 31.092,33.467 30.206,33.812C29.536,34.072 28.53,34.381 26.678,34.466C24.674,34.557 24.074,34.577 19,34.577C13.926,34.577 13.326,34.557 11.322,34.466C9.47,34.381 8.464,34.072 7.794,33.812C6.907,33.467 6.274,33.055 5.61,32.39C4.945,31.726 4.533,31.093 4.188,30.206C3.928,29.536 3.619,28.53 3.534,26.678C3.443,24.674 3.423,24.073 3.423,19C3.423,13.927 3.443,13.326 3.534,11.322C3.619,9.47 3.928,8.464 4.188,7.794C4.533,6.908 4.945,6.275 5.61,5.61C6.274,4.945 6.907,4.533 7.794,4.188C8.464,3.928 9.47,3.619 11.322,3.534C13.326,3.443 13.927,3.423 19,3.423ZM19,0C13.84,0 13.193,0.022 11.166,0.114C9.144,0.207 7.763,0.528 6.554,0.998C5.305,1.483 4.245,2.133 3.189,3.189C2.133,4.245 1.483,5.305 0.997,6.554C0.528,7.763 0.207,9.144 0.114,11.166C0.022,13.193 0,13.84 0,19C0,24.16 0.022,24.807 0.114,26.834C0.207,28.856 0.528,30.237 0.997,31.446C1.483,32.695 2.133,33.755 3.189,34.811C4.245,35.867 5.305,36.517 6.554,37.003C7.763,37.472 9.144,37.793 11.166,37.886C13.193,37.978 13.84,38 19,38C24.16,38 24.807,37.978 26.834,37.886C28.856,37.793 30.237,37.472 31.446,37.003C32.695,36.517 33.755,35.867 34.811,34.811C35.867,33.755 36.517,32.695 37.002,31.446C37.472,30.237 37.793,28.856 37.886,26.834C37.978,24.807 38,24.16 38,19C38,13.84 37.978,13.193 37.886,11.166C37.793,9.144 37.472,7.763 37.002,6.554C36.517,5.305 35.867,4.245 34.811,3.189C33.755,2.133 32.695,1.483 31.446,0.998C30.237,0.528 28.856,0.207 26.834,0.114C24.807,0.022 24.16,0 19,0ZM19,9.243C13.611,9.243 9.243,13.612 9.243,19C9.243,24.389 13.611,28.757 19,28.757C24.388,28.757 28.757,24.389 28.757,19C28.757,13.612 24.388,9.243 19,9.243ZM19,25.333C15.502,25.333 12.667,22.498 12.667,19C12.667,15.502 15.502,12.667 19,12.667C22.498,12.667 25.333,15.502 25.333,19C25.333,22.498 22.498,25.333 19,25.333ZM31.422,8.858C31.422,10.117 30.401,11.138 29.142,11.138C27.883,11.138 26.862,10.117 26.862,8.858C26.862,7.599 27.883,6.578 29.142,6.578C30.401,6.578 31.422,7.599 31.422,8.858Z" fill="#000000"/>
</svg>
