<svg width="42" height="32" viewBox="0 0 42 32" fill="none" xmlns="http://www.w3.org/2000/svg" xmlns:xlink="http://www.w3.org/1999/xlink">
<path d="M41.73,7.066C41.73,3.316 39.015,0.299 35.659,0.299C31.114,0.083 26.479,0 21.742,0L20.265,0C15.539,0 10.896,0.083 6.351,0.3C3.003,0.3 0.288,3.333 0.288,7.083C0.083,10.049 -0.004,13.015 0,15.982C-0.008,18.949 0.085,21.918 0.279,24.89C0.279,28.64 2.995,31.682 6.342,31.682C11.117,31.907 16.015,32.007 20.995,31.998C25.983,32.015 30.867,31.909 35.648,31.682C39.003,31.682 41.719,28.64 41.719,24.89C41.916,21.915 42.006,18.949 41.998,15.974C42.016,13.007 41.927,10.038 41.73,7.066ZM16.983,24.157L16.983,7.782L28.879,15.965L16.983,24.157Z" fill="#494444"/>
</svg>
