<svg width="42" height="38" viewBox="0 0 42 38" fill="none" xmlns="http://www.w3.org/2000/svg" xmlns:xlink="http://www.w3.org/1999/xlink">
<path d="M42,19.115C42,8.559 32.597,0 21,0C9.403,0 0,8.559 0,19.115C0,28.655 7.678,36.563 17.719,37.998L17.719,24.642L12.385,24.642L12.385,19.115L17.719,19.115L17.719,14.904C17.719,10.114 20.855,7.466 25.651,7.466C27.949,7.466 30.353,7.84 30.353,7.84L30.353,12.544L27.703,12.544C25.096,12.544 24.28,14.017 24.28,15.531L24.28,19.115L30.104,19.115L29.174,24.642L24.281,24.642L24.281,38C34.322,36.566 42,28.658 42,19.115Z" clip-rule="evenodd" fill-rule="evenodd" fill="#D9D9D9"/>
</svg>
