<svg width="38" height="36" viewBox="0 0 38 36" fill="none" xmlns="http://www.w3.org/2000/svg" xmlns:xlink="http://www.w3.org/1999/xlink">
<path d="M33.268,7.699C32.972,7.574 32.684,7.436 32.405,7.287C31.593,6.846 30.849,6.327 30.188,5.74C28.535,4.187 27.917,2.611 27.69,1.508L27.699,1.508C27.509,0.592 27.588,0 27.599,0L20.07,0L20.07,23.907C20.07,24.228 20.07,24.546 20.053,24.859C20.053,24.898 20.049,24.934 20.046,24.976C20.046,24.993 20.046,25.011 20.041,25.029L20.041,25.043C19.962,25.901 19.627,26.729 19.066,27.456C18.505,28.182 17.735,28.785 16.824,29.21C15.875,29.653 14.801,29.886 13.709,29.885C10.201,29.885 7.357,27.536 7.357,24.635C7.357,21.734 10.201,19.385 13.709,19.385C14.373,19.385 15.033,19.47 15.664,19.639L15.674,13.344C13.757,13.141 11.809,13.266 9.954,13.711C8.099,14.157 6.377,14.913 4.896,15.933C3.598,16.859 2.507,17.964 1.672,19.198C1.354,19.648 0.154,21.456 0.009,24.39C-0.082,26.056 0.527,27.782 0.818,28.495L0.818,28.51C1,28.93 1.708,30.363 2.862,31.571C3.792,32.54 4.891,33.392 6.123,34.098L6.123,34.083L6.142,34.098C9.787,36.132 13.829,35.998 13.829,35.998C14.528,35.975 16.872,35.998 19.533,34.963C22.485,33.814 24.166,32.104 24.166,32.104C25.24,31.082 26.093,29.917 26.691,28.659C27.372,27.188 27.599,25.424 27.599,24.72L27.599,12.036C27.691,12.081 28.907,12.742 28.907,12.742C28.907,12.742 30.66,13.664 33.395,14.265C35.357,14.693 38,14.783 38,14.783L38,8.645C37.074,8.727 35.193,8.487 33.268,7.699Z" fill="#000000"/>
</svg>
