<svg width="56" height="50" viewBox="0 0 56 50" fill="none" xmlns="http://www.w3.org/2000/svg" xmlns:xlink="http://www.w3.org/1999/xlink">
<path d="M40.023,31.447L37.493,31.447L36.597,30.675C39.735,27.416 41.624,23.185 41.624,18.582C41.624,8.319 32.306,0 20.812,0C9.317,0 0,8.319 0,18.582C0,28.845 9.317,37.164 20.812,37.164C25.967,37.164 30.706,35.477 34.356,32.676L35.22,33.476L35.22,35.735L51.229,50L56,45.74L40.023,31.447ZM20.812,31.447C12.839,31.447 6.404,25.7 6.404,18.582C6.404,11.464 12.839,5.718 20.812,5.718C28.784,5.718 35.22,11.464 35.22,18.582C35.22,25.7 28.784,31.447 20.812,31.447Z" fill="#7E7E7E"/>
</svg>
