<svg width="190" height="190" viewBox="0 0 190 190" fill="none" xmlns="http://www.w3.org/2000/svg" xmlns:xlink="http://www.w3.org/1999/xlink">
<path d="M95,0C42.618,0 0,42.618 0,95C0,147.382 42.618,190 95,190C147.382,190 190,147.382 190,95C190,42.618 147.382,0 95,0ZM95.913,43.846C102.417,43.846 108.775,45.775 114.183,49.388C119.591,53.002 123.806,58.137 126.295,64.146C128.784,70.155 129.435,76.767 128.166,83.146C126.897,89.525 123.765,95.385 119.166,99.984C114.567,104.583 108.708,107.715 102.329,108.984C95.95,110.252 89.338,109.601 83.329,107.112C77.32,104.623 72.184,100.408 68.571,95C64.957,89.593 63.029,83.235 63.029,76.731C63.029,68.009 66.493,59.645 72.661,53.478C78.828,47.311 87.192,43.846 95.913,43.846ZM95,175.385C83.913,175.389 72.945,173.094 62.79,168.645C52.634,164.195 43.512,157.688 36,149.534C40.037,128.625 76.301,124.231 95,124.231C113.699,124.231 149.963,128.625 154,149.529C146.489,157.685 137.367,164.193 127.212,168.644C117.056,173.094 106.088,175.389 95,175.385Z" fill="#4B4B4B"/>
</svg>
