<svg width="54" height="52" viewBox="0 0 54 52" fill="none" xmlns="http://www.w3.org/2000/svg" xmlns:xlink="http://www.w3.org/1999/xlink">
<path d="M16.205,52C14.719,52 13.448,51.491 12.391,50.474C11.333,49.455 10.803,48.23 10.803,46.8C10.803,45.37 11.333,44.145 12.391,43.126C13.448,42.109 14.719,41.6 16.205,41.6C17.69,41.6 18.961,42.109 20.018,43.126C21.077,44.145 21.606,45.37 21.606,46.8C21.606,48.23 21.077,49.455 20.018,50.474C18.961,51.491 17.69,52 16.205,52ZM43.213,52C41.727,52 40.456,51.491 39.399,50.474C38.341,49.455 37.811,48.23 37.811,46.8C37.811,45.37 38.341,44.145 39.399,43.126C40.456,42.109 41.727,41.6 43.213,41.6C44.698,41.6 45.97,42.109 47.029,43.126C48.086,44.145 48.614,45.37 48.614,46.8C48.614,48.23 48.086,49.455 47.029,50.474C45.97,51.491 44.698,52 43.213,52ZM13.909,10.4L20.391,23.4L39.297,23.4L46.724,10.4L13.909,10.4ZM11.343,5.2L51.18,5.2C52.396,5.2 53.228,5.633 53.678,6.5C54.129,7.367 54.106,8.277 53.611,9.23L44.023,25.87C43.528,26.737 42.875,27.408 42.065,27.885C41.255,28.362 40.332,28.6 39.297,28.6L19.176,28.6L16.205,33.8L48.614,33.8L48.614,39L16.205,39C14.179,39 12.649,38.144 11.613,36.431C10.578,34.72 10.533,33.02 11.478,31.33L15.124,24.96L5.402,5.2L0,5.2L0,0L8.778,0L11.343,5.2Z" fill="#000000"/>
</svg>
